PathFileType	4	(X/Y/Z)	Patient4_TMGait_0pt4_01_right_06.trc.trc
DataRate	CameraRate	NumFrames	NumMarkers	Units	OrigDataRate	OrigDataStartFrame	OrigNumFrames
73.298429319372	73.298429319372	6	33	mm	73.298429319372	89	       141
Frame#	Time	Sacral			L.Shoulder			Chest			R.Shoulder			Neck			R.ASIS			L.ASIS			R.Thigh.Superior			R.Thigh.Lateral			R.Thigh.Inferior			R.Patella			L.Thigh.Superior			L.Thigh.Lateral			L.Thigh.Inferior			L.Patella			L.Shank.Superior			L.Shank.Lateral			L.Shank.Inferior			R.Shank.Superior			R.Shank.Lateral			R.Shank.Inferior			R.Heel			R.Midfoot.Superior			R.Midfoot.Lateral			R.Toe			L.Heel			L.Midfoot.Lateral			L.Midfoot.Superior			L.Toe			L.Elbow			L.Wrist			R.Elbow			R.Wrist			
		X1	Y1	Z1	X2	Y2	Z2	X3	Y3	Z3	X4	Y4	Z4	X5	Y5	Z5	X6	Y6	Z6	X7	Y7	Z7	X8	Y8	Z8	X9	Y9	Z9	X10	Y10	Z10	X11	Y11	Z11	X12	Y12	Z12	X13	Y13	Z13	X14	Y14	Z14	X15	Y15	Z15	X16	Y16	Z16	X17	Y17	Z17	X18	Y18	Z18	X19	Y19	Z19	X20	Y20	Z20	X21	Y21	Z21	X22	Y22	Z22	X23	Y23	Z23	X24	Y24	Z24	X25	Y25	Z25	X26	Y26	Z26	X27	Y27	Z27	X28	Y28	Z28	X29	Y29	Z29	X30	Y30	Z30	X31	Y31	Z31	X32	Y32	Z32	X33	Y33	Z33	

89	8.490571428571	796.617899466670	1004.283072824780	490.591853110207	947.203257030973	1434.814330732993	292.754317039944	1060.658531551051	1374.654344623739	449.477593975076	983.719884961719	1448.146018941327	626.715487682822	937.044691904497	1499.110391262860	447.347244749544	1030.819115172786	945.054347620368	596.656799934329	1004.696667856491	968.193398836467	322.956343147415	1058.606905926853	736.450567819618	573.632817147377	974.398939441222	631.128156720881	641.215002994263	1048.948560487094	569.644342738694	565.881849291951	1039.391835108673	466.056855376364	585.977922750046	1064.710849002244	758.667413301707	355.675146269838	983.388217343727	636.762659882806	297.330754274740	1071.289179011577	563.575002311779	361.181625404083	1074.308119286349	494.100682950627	371.245027478092	1048.712537443810	421.028397211868	363.041709320857	961.628610102849	305.260385230707	312.927374843388	1013.883154066546	194.653230813045	382.822204641518	971.247132497041	393.825723460538	592.184866610055	860.132411438371	334.403579669472	654.373701887929	860.874424026999	225.798368481001	600.621613124909	670.169729622062	120.714167570765	575.497520718012	847.573540527095	108.139752849063	610.172813277719	744.347802507710	78.133990889889	645.952774567399	939.816991027622	34.926005498903	632.920487448592	888.702840989485	38.067142375399	424.784455252860	960.648932485991	35.908443375557	342.471725346456	1044.305072401668	96.717004510402	368.072020047185	1172.296566937937	44.958740751406	335.663383353084	890.425475900200	1083.454693903549	187.889081456288	979.931928828521	837.276702846739	180.986501492158	983.428565150800	1101.518465050841	753.655085394016	1115.896643980890	878.468160738954	730.935630863660	
90	8.504214285714	795.765465156440	1004.134620323008	486.273526527155	948.136299271322	1435.175372689878	289.516123795582	1059.742847367629	1375.132740235243	447.564439837736	980.591365590387	1448.278793154948	623.980836289651	935.994404990837	1499.325999160955	444.256730748906	1029.359278924975	945.801999247439	594.339178939716	1005.521209534616	968.395050978406	320.529939732919	1062.204888639189	738.455385711908	572.032238986764	980.695070981794	631.746452184240	640.030121419997	1057.345756549953	571.265160157995	565.408399838421	1049.033863140878	466.526235962686	586.643068430080	1063.708253304683	757.706108073071	353.427066937678	981.288942085317	636.629316066354	295.018351228511	1068.133956580154	562.764235574234	359.283237770184	1070.396559621120	493.398032783976	369.589598848608	1044.684855247121	420.443539893224	361.529288193566	957.382455488384	304.776858486601	311.662131095624	1008.913747223484	194.253423385001	382.153875107835	979.069555169602	394.842548889782	592.506062878839	865.810099415165	338.985560185177	654.190900406903	864.124300535112	230.047500447778	601.296000097766	670.607127750376	132.598300830126	575.853259524007	846.966393888765	110.953613941290	610.645803685990	742.386266568332	85.936100575907	646.137424463655	934.740792317477	34.085622588826	633.020520757225	883.179997084692	38.042527497752	424.737052744763	955.109974197586	35.826420721080	342.376517026659	1038.884524378504	96.532199139708	367.981560283843	1166.884623558731	44.418614795459	335.649114084841	895.331106675985	1083.842043882100	182.171837019575	993.039206313237	840.611276404296	176.863031868691	972.922306318565	1102.194210771099	751.633109532612	1093.561994802869	871.560341326421	735.164545333316	
91	8.517857142857	794.683131427402	1003.837130343988	482.029701277494	949.075003444783	1435.297749789684	286.404772560799	1058.787074404055	1375.358332948362	445.774651806511	977.454684664012	1448.209484875240	621.346271466951	934.988800542861	1499.370642375538	441.261317803521	1027.701912511665	946.335001304755	592.152851198255	1006.155926938275	968.422228567691	318.240384761600	1065.867283099776	740.596781146258	570.499087816134	987.199466141680	632.455756251450	638.929895087205	1065.945642231537	573.127789230213	564.977697610858	1058.938855756643	467.320713989434	587.141749253048	1062.621799813853	756.764785374868	351.285942846856	979.250172842970	636.467514174116	292.691022873753	1065.090411288497	561.969971611687	357.349050919164	1066.624316304063	492.673742675411	367.855816824657	1040.772912193379	419.819431760918	359.951948574071	953.196783966523	304.283284758151	310.294616154818	1003.988503912858	193.838698231833	381.418443545553	987.287537527366	396.067951635648	592.681009781230	872.061500307725	343.781017622184	653.955370631346	867.810788691546	234.651282498299	601.812353275447	671.804934790650	145.110369613109	576.028387485416	846.792104699814	114.468391734852	611.119631181653	740.969258088525	94.505866316126	646.208045170998	929.916661647776	33.196520463969	633.190988862849	877.673867067725	38.020689632245	424.664639618618	949.587316812342	35.741536242747	342.251047920191	1033.467426818198	96.354848360068	367.851447810516	1161.484526351635	43.920380890516	335.631080123909	900.511332762687	1084.049200130950	176.479293292764	1006.376836808719	844.083600364164	172.833248109844	962.277462919813	1102.838628355779	749.625413032324	1071.090416503810	865.696651695334	739.226277763513	
92	8.531500000000	793.406565543823	1003.425698267041	477.899590089527	949.986822332753	1435.205241697722	283.439371077171	1057.781073384192	1375.371556849543	444.116933686020	974.313537615007	1447.994770318051	618.817947951846	934.026130912555	1499.280690915132	438.368891598974	1025.872380018242	946.692370562964	590.120955773104	1006.590496970552	968.305724918317	316.105368633370	1069.476965003569	742.900834862893	569.037015190843	993.741797400322	633.316325693678	637.891314877887	1074.548935787972	575.281254963515	564.564875140985	1068.927184415416	468.483889568810	587.446538900665	1061.481054903787	755.857930326436	349.199346092568	977.224118511727	636.274065645540	290.400039934068	1062.153613295822	561.190345593717	355.381774199276	1063.003356374893	491.937842707136	366.074187790122	1036.977952094375	419.168481588741	358.343995398191	949.054656195578	303.800590046015	308.864214499317	999.105159886872	193.423280724690	380.635373199273	995.733640774436	397.547266509554	592.687915919412	878.734659696337	348.753814021793	653.628778883295	871.860334108104	239.563907090826	602.131835673651	673.743500452430	157.932060886820	575.963065057791	847.110612708566	118.687369132937	611.592118191541	740.169986814858	103.654881968454	646.127673754367	925.530899805153	32.361095504252	633.438338823518	872.186852951678	38.007432090199	424.570184933194	944.083540921122	35.657450506834	342.101246495559	1028.055767986889	96.190671494395	367.683916887277	1156.095108690288	43.474696366356	335.606092394191	905.994167843202	1084.091129726797	170.876998439485	1019.880780453218	847.681541379058	168.912875359210	951.492230018741	1103.512523543274	747.636817600866	1048.652100577079	860.921423469916	743.040990043271	
93	8.545142857143	791.985675874775	1002.949699954368	473.923869369154	950.848757837786	1434.943266980876	280.632440406002	1056.718786635618	1375.231724136822	442.597301352535	971.169926702787	1447.706999116571	616.396570964428	933.101696715293	1499.105917826041	435.583555902138	1023.899766591106	946.933878016299	588.259533409400	1006.823844112193	968.089052823121	314.137948170397	1072.913373560527	745.387733703203	567.650065542089	1000.147608139398	634.382930745491	636.899272113914	1082.953425252253	577.762843134891	564.154516318611	1078.814590631116	470.050213683071	587.560590303848	1060.299373394892	754.993941463110	347.128608510323	975.152462527856	636.054073962804	288.197075140314	1059.289397592865	560.425659351980	353.401313944076	1059.507537930962	491.203363732467	364.285270929360	1033.270725304245	418.509929468362	356.743765510890	944.918464750551	303.350189040914	307.412984514577	994.248818796154	193.024039098102	379.826719487125	1004.240727918280	399.316206116721	592.532755321425	885.666850361262	353.845429503674	653.184299114603	876.219003682449	244.701374478425	602.237123184976	676.396253080842	170.651767837040	575.612100075368	848.010361921786	123.531888675381	612.053259958600	740.082118457499	113.101249172909	645.870540000758	921.832517663678	31.711650703378	633.764662155608	866.715690972245	38.007616848325	424.457667785053	938.596769399284	35.577307949285	341.934898762672	1022.648431703645	96.043103867556	367.484496245969	1150.711523803292	43.086451379312	335.573006573808	911.791028368796	1084.008747756887	165.432224477732	1033.487744643179	851.412128409182	165.120746530882	940.583565760544	1104.294431551386	745.667050338523	1026.421161694923	857.257834799598	746.533644121832	
94	8.558785714286	790.475114023218	1002.466994992873	470.140249122163	951.649423184065	1434.572440389417	277.990426088590	1055.599666978460	1375.008817356728	441.218772304897	968.026866908017	1447.425118632854	614.078336828748	932.208811149241	1498.902875917411	432.906960346948	1021.813574507714	947.131233456737	586.575784165990	1006.864041493284	967.823632885316	312.345317510887	1076.064263114291	748.068264706194	566.341568579345	1006.253598277315	635.697860688193	635.949647653658	1090.970157495329	580.591138937102	563.742369292904	1088.423277443874	472.040454958027	587.515008395422	1059.072110965233	754.176836105015	345.058960077091	972.974337931449	635.821025838156	286.129761316311	1056.439396579232	559.679307897038	351.443648206162	1056.077194207853	490.486082120443	362.536286596740	1029.596892885279	417.868512360639	355.190221424592	940.737082164377	302.952264621037	305.982434385456	989.396610416074	192.659331924163	379.015244951319	1012.655232674168	401.393527845232	592.246517091834	892.702040826299	358.969052694431	652.611498411356	880.861875442444	249.937872224712	602.134990015457	679.739423962132	182.785090944742	574.956443490467	849.608558436320	128.837482686065	612.487735035098	740.821981885003	122.479927183008	645.429446214673	919.130897045233	31.390534980382	634.169847877602	861.253563239437	38.024691252235	424.331231419544	933.122590391192	35.503653777290	341.760356711648	1017.242494853929	95.913677930040	367.261007387327	1145.327228081843	42.756237991367	335.532314793430	917.894137661180	1083.862516883110	160.209285851328	1047.135249576350	855.298910300222	161.478361283129	929.584971329803	1105.269512379093	743.712124630077	1004.573208475578	854.706585419707	749.637150443084	
